
<svg width="1440px" height="960px" viewBox="0 0 1440 960" version="1.1" xmlns="http://www.w3.org/2000/svg" xmlns:xlink="http://www.w3.org/1999/xlink">
    <!-- Generator: Sketch 46.2 (44496) - http://www.bohemiancoding.com/sketch -->
    <desc>Created with Sketch.</desc>
    <defs></defs>
    <g id="Page-1" stroke="none" stroke-width="1" fill="none" fill-rule="evenodd">
        <g id="Desktop-HD" fill="#71E042">
            <g id="Group-10" transform="translate(-839.000000, -669.000000)">
                <path d="M2226.44854,1375.51346 C2299.12738,1480.66716 2367.75577,1543.06158 2415.77526,1578.30806 C2485.14241,1437.1184 2611.16491,1131.79323 2564.54652,854.60921 C2538.63892,700.354929 2473.2458,580.939653 2380.39114,518.392433 C2340.98204,491.804771 2299.17833,477.466788 2257.2982,475.811426 C2289.9056,541.210963 2317.16335,612.366066 2338.68933,688.563657 C2405.6364,925.051234 2366.78774,1161.30961 2226.44854,1375.51346 L2226.44854,1375.51346 Z M2492.50455,1816.09446 L2422.24579,1791.79883 C2402.06996,1784.82085 2219.92706,1715.1683 2037.83512,1422.19468 L2004.82012,1369.04482 L2042.26768,1318.92555 C2179.06592,1135.86797 2219.41757,940.560704 2162.20178,738.453724 C2133.05891,635.388333 2092.24871,544.114213 2040.86659,467.101675 L1985.15379,383.62049 L2073.34661,335.69139 C2101.90356,320.181921 2132.54942,308.721722 2164.44354,301.590931 C2272.45555,277.677315 2385.51152,300.674115 2482.92612,366.35379 C2617.89019,457.296837 2711.1015,619.90433 2745.41569,824.226949 C2819.67395,1265.69929 2542.63842,1732.74061 2530.81824,1752.40121 L2492.50455,1816.09446 Z" id="Fill-2"></path>
                <path d="M1514.00998,183.553426 C1450.50197,183.553426 1383.93702,191.677434 1314.82462,208.078252 C1063.44194,267.773157 853.735603,541.926588 650.932861,807.039196 C507.00176,995.215667 371.044188,1172.92516 216.948749,1282.22999 C179.552138,1308.71578 172.801387,1407.06976 203.523671,1477.15524 C304.275442,1707.02137 661.377419,1843.57601 853.761078,1832.85436 C1331.17927,1806.39403 1531.10339,1733.91464 1698.95507,1625.52662 C1844.89866,1531.34925 1960.40018,1428.20746 2042.27533,1318.92809 C2179.07356,1135.87051 2219.42522,940.563251 2162.20942,738.456271 C2133.06656,635.39088 2092.23088,544.11676 2040.87423,467.104221 C1916.76231,280.710448 1733.72781,183.553426 1514.00998,183.553426 M833.839995,2016.75236 C576.139638,2016.75236 165.821365,1847.98182 35.5446133,1550.78066 C7.54810357,1486.88368 -4.2975534,1409.10713 3.09006062,1337.36628 C12.3118409,1248.05313 50.5745866,1175.37 110.847327,1132.66166 C242.244959,1039.4775 369.974258,872.4642 505.244018,695.671527 C727.560251,405.015409 957.44242,104.503519 1272.435,29.7066186 C1655.16435,-61.287363 1990.8932,61.1330315 2193.49214,365.439521 C2255.47168,458.318068 2304.3573,567.062625 2338.69697,688.566204 C2411.24844,944.790791 2359.56061,1200.73524 2189.21242,1428.66587 L2189.136,1428.74227 C2094.19242,1555.54301 1962.74384,1673.55759 1798.43311,1779.57717 C1570.51249,1926.72612 1317.21922,1990.80137 863.899941,2015.93741 C854.143196,2016.47222 844.106231,2016.75236 833.839995,2016.75236" id="Fill-4"></path>
                <path d="M804.442386,1727.94515 C784.444879,1727.94515 771.911409,1727.56314 768.497822,1727.43581 C720.707602,1725.72951 683.336465,1685.61881 685.043258,1637.81705 C686.750052,1590.06622 726.821489,1552.98611 774.61171,1554.36133 C780.929393,1554.64147 1411.85711,1572.51938 1708.63539,1268.69677 C1742.05798,1234.46897 1796.90464,1233.83229 1831.11694,1267.24514 C1865.32923,1300.65799 1865.99157,1355.48868 1832.56899,1389.691 C1523.30818,1706.27264 954.18168,1727.94515 804.442386,1727.94515" id="Fill-6"></path>
                <path d="M2002.45863,1136.11245 C2002.45863,1178.82079 1967.81327,1213.45606 1925.09248,1213.45606 C1882.34622,1213.45606 1847.72633,1178.82079 1847.72633,1136.11245 C1847.72633,1093.40411 1882.34622,1058.76884 1925.09248,1058.76884 C1967.81327,1058.76884 2002.45863,1093.40411 2002.45863,1136.11245" id="Fill-8"></path>
            </g>
        </g>
    </g>
</svg>